<svg xmlns="http://www.w3.org/2000/svg" width="900" height="470" viewBox="0 0 900 470" role="img" aria-label="why-are-you-here - how it behaves"><linearGradient id="skys" x1="0" y1="0" x2="0" y2="1"><stop offset="0" stop-color="#425f7e"/><stop offset="0.62" stop-color="#4a6b8a"/><stop offset="1" stop-color="#f3ad8a"/></linearGradient><rect width="900" height="470" fill="url(#skys)"/><radialGradient id="suns"><stop offset="0.35" stop-color="#f5c95c" stop-opacity="0.34"/><stop offset="1" stop-color="#f5c95c" stop-opacity="0"/></radialGradient><circle cx="752" cy="92" r="104" fill="url(#suns)"/><circle cx="752" cy="92" r="40" fill="#f5c95c"/><circle cx="743.2" cy="81.6" r="24" fill="#f5d27e" opacity="0.5"/><g><circle cx="524" cy="66" r="17.64" fill="#f6e7ce"/><circle cx="506.36" cy="71.04" r="13.44" fill="#f6e7ce"/><circle cx="542.48" cy="70.2" r="12.6" fill="#f6e7ce"/><rect x="493.76" y="69.36" width="62.16" height="10.92" rx="5.46" fill="#f6e7ce"/></g><g><circle cx="660" cy="40" r="12.6" fill="#f6e7ce"/><circle cx="647.4" cy="43.6" r="9.6" fill="#f6e7ce"/><circle cx="673.2" cy="43" r="9" fill="#f6e7ce"/><rect x="638.4" y="42.4" width="44.4" height="7.8" rx="3.9" fill="#f6e7ce"/></g><rect x="0" y="352" width="900" height="118" fill="#e3c08d"/><rect x="0" y="352" width="900" height="3" fill="#e6c596"/><text x="44" y="62" font-family="Verdana,DejaVu Sans,sans-serif" font-size="30" font-weight="700" letter-spacing="0.6" fill="#f6e7ce" text-anchor="start">why-are-you-here</text><text x="46" y="88" font-family="Verdana,DejaVu Sans,sans-serif" font-size="14" font-weight="700" letter-spacing="0.6" fill="#e3c08d" text-anchor="start">PRIMITIVES</text><rect x="44" y="106" width="74" height="4" rx="2" fill="#f5c95c"/><text x="132" y="112" font-family="Verdana,DejaVu Sans,sans-serif" font-size="13" font-weight="700" letter-spacing="0.6" fill="#e3c08d" text-anchor="start">0 detected</text><path d="M388,352 L388,212.8 A80,80 0 0 1 548,212.8 L548,352 Z M423.2,348 L423.2,209.22 A44.8,44.8 0 0 1 512.8,209.22 L512.8,348 Z" fill="#f6e7ce" fill-rule="evenodd" stroke="#f6e7ce" stroke-width="5" stroke-linejoin="round"/><path d="M388,352 L388,212.8 A80,80 0 0 1 548,212.8 L548,352 Z" fill="none" stroke="#f6e7ce" stroke-width="7" stroke-linecap="round" opacity="0.85"/><rect x="396" y="212.8" width="8" height="139.2" fill="#d7cdbc"/><circle cx="96" cy="306" r="26" fill="#c1683f"/><circle cx="88.2" cy="297.16" r="10.92" fill="#cc815c" opacity="0.55"/><text x="96" y="348" font-family="Verdana,DejaVu Sans,sans-serif" font-size="11" font-weight="700" letter-spacing="0.6" fill="#f6e7ce" text-anchor="middle">in</text><circle cx="456" cy="306" r="26" fill="#9bb07a"/><circle cx="448.2" cy="297.16" r="10.92" fill="#adbb8b" opacity="0.55"/><text x="456" y="348" font-family="Verdana,DejaVu Sans,sans-serif" font-size="11" font-weight="700" letter-spacing="0.6" fill="#f6e7ce" text-anchor="middle">no primitive ma</text><circle cx="816" cy="306" r="26" fill="#c1683f"/><circle cx="808.2" cy="297.16" r="10.92" fill="#cc815c" opacity="0.55"/><text x="816" y="348" font-family="Verdana,DejaVu Sans,sans-serif" font-size="11" font-weight="700" letter-spacing="0.6" fill="#f6e7ce" text-anchor="middle">out</text><path d="M96,368 L186,368 L196,358 L106,358 Z" fill="#afbc8c" stroke="#9bb07a" stroke-width="5" stroke-linejoin="round"/><path d="M186,368 L196,358 L196,384 L186,394 Z" fill="#859972" stroke="#9bb07a" stroke-width="5" stroke-linejoin="round"/><rect x="96" y="368" width="90" height="26" rx="8" fill="#9bb07a"/><rect x="804.86" y="260" width="14.28" height="92" rx="7.14" fill="#c1683f"/><rect x="785.96" y="291.28" width="12.6" height="31.28" rx="6.3" fill="#c1683f"/><rect x="785.96" y="291.28" width="12.6" height="9.2" rx="2.1" fill="#c1683f"/><rect x="825.44" y="278.4" width="12.6" height="31.28" rx="6.3" fill="#c1683f"/><rect x="825.44" y="278.4" width="12.6" height="9.2" rx="2.1" fill="#c1683f"/><rect x="0" y="418" width="900" height="52" rx="0" fill="#75886c" opacity="0.94"/><text x="44" y="460" font-family="Verdana,DejaVu Sans,sans-serif" font-size="15" font-weight="700" letter-spacing="0.6" fill="#f6e7ce" text-anchor="start">DUNG30N5 x NOAERTH  /  Scaffold</text><text x="856" y="460" font-family="Verdana,DejaVu Sans,sans-serif" font-size="13" font-weight="700" letter-spacing="0.6" fill="#f6e7ce" text-anchor="end">SCAFFOLD  -  evidence E2</text></svg>